# xmcd
#
# Track frame offsets:
#	150
#	12565
#	25655
#	39490
#	49107
#	61395
#	77955
#	92232
#	105770
#	118415
#	135385
#	149592
#	161880
#	176130
#	188142
#	204545
#	221410
#	232102
#	243577
#	256787
#
# Disc length: 3598 seconds
#
# Revision: 0
# Processed by: cddbd v1.5.2PL0 Copyright (c) Steve Scherf et al.
# Submitted via: audiograbber 1.83.01
#
DISCID=220e0c14
DTITLE=Nachtrijders - 20 nederlands truckers songs
DYEAR=1999
DGENRE=National Folk
TTITLE0=ik heb een truck als een woning
TTITLE1=driehonderd paardekrachten
TTITLE2=het leven van een truckdriver
TTITLE3=een trucker is vaak alleen 
TTITLE4=asfalt rocker
TTITLE5=hij was chauffeur
TTITLE6=met de vlam in de pijp 
TTITLE7=lik op stuk
TTITLE8=kilometer vreters
TTITLE9=jouw leven is op de grote baan
TTITLE10=het truckers lied
TTITLE11=wat is de mooiste plaat
TTITLE12=een vrachtrijder moet doorgaan 
TTITLE13=op de baan baan baan 
TTITLE14=country music
TTITLE15=de waanzin van de snelweg
TTITLE16=ik heb een wagen vol geladen 
TTITLE17=de vrouw van een trucker
TTITLE18=nachtrijders
TTITLE19=de containersong
EXTD=
EXTT0=
EXTT1=
EXTT2=
EXTT3=
EXTT4=
EXTT5=
EXTT6=
EXTT7=
EXTT8=
EXTT9=
EXTT10=
EXTT11=
EXTT12=
EXTT13=
EXTT14=
EXTT15=
EXTT16=
EXTT17=
EXTT18=
EXTT19=
PLAYORDER=
